<svg width="100%" height="100%" viewBox="0 0 2764 2396" version="1.1" xmlns="http://www.w3.org/2000/svg" xmlns:xlink="http://www.w3.org/1999/xlink" xml:space="preserve" xmlns:serif="http://www.serif.com/" style="fill-rule:evenodd;clip-rule:evenodd;stroke-linecap:round;stroke-linejoin:round;stroke-miterlimit:1.5;">
    <g id="logo-top">
        <path id="logo-top-depth" d="M1597.63,135.627C1597.63,135.627 1771.56,57.441 1840.11,61.787C1920.62,66.892 2008.78,96.565 2096.22,146.808C2097.59,147.595 2098.95,148.386 2100.32,149.181C2188.83,200.848 2276.06,272.897 2356.15,360.63C2485.99,502.88 2594.87,684.878 2660.2,868.161C2720.37,1036.95 2742.77,1205.27 2724.72,1343.6C2724.15,1347.97 2722.89,1356.62 2722.89,1356.62L2641.05,1403.81C2641.7,1399.52 2642.31,1395.2 2642.88,1390.85C2660.93,1252.53 2638.52,1084.2 2578.35,915.415C2513.02,732.133 2404.15,550.134 2274.3,407.884C2194.22,320.151 2106.98,248.103 2018.47,196.435C2017.11,195.641 2015.74,194.85 2014.38,194.062C1926.94,143.819 1838.77,114.146 1758.26,109.041C1699.91,105.342 1645.66,114.566 1597.63,135.627Z" style="fill:url(#_Linear1);"/>
        <path id="logo-top-main" d="M2641.04,1403.87C2641.7,1399.56 2642.31,1395.22 2642.88,1390.85C2660.93,1252.53 2638.52,1084.2 2578.35,915.415C2513.02,732.133 2404.15,550.134 2274.3,407.884C2194.22,320.151 2106.98,248.103 2018.47,196.435C2017.11,195.641 2015.74,194.85 2014.38,194.062C1926.94,143.819 1838.77,114.146 1758.26,109.041C1628,100.782 1518.14,156.941 1452.45,265.372C1396.64,357.498 1373.16,486.888 1384.71,632.999C1415.05,665.908 1447.84,695.971 1480.98,714.148C1514.18,732.351 1546.12,736.037 1574.52,731.069C1613.49,724.252 1647.42,706.026 1683.83,694.077C1717.09,683.163 1752.5,676.98 1790.99,678.209C1833.99,679.582 1878.2,684.734 1926.05,706.473C1938.77,712.255 1951.64,719.039 1964.34,726.388C2016.95,756.902 2069.32,796.956 2121.31,836.86C2123.39,838.453 2125.46,840.049 2127.54,841.646C2131.63,844.798 2135.65,849.796 2136.23,854.88C2136.59,858.017 2135.64,860.515 2133.83,861.459C2132.02,862.411 2131.38,862.153 2128.59,861.033C2113.45,855.019 2098.82,852.514 2084.87,851.898C2051.01,850.403 2021.91,863.645 2003.75,890.662C1969.79,941.184 1968.32,1031.15 2008.19,1123.26C2043.21,1204.16 2104.79,1276.58 2163.18,1329.81C2224.07,1385.3 2289.62,1423.07 2350.62,1437.11C2410.08,1450.8 2464.19,1445.21 2514.45,1432.69C2544.39,1425.23 2603.5,1412.07 2641.04,1403.87Z" style="fill:url(#_Linear2);"/>
    </g>
    <g id="screen">
        <g id="screen-background">
            <path id="screen-background-depth" d="M1562.98,213.311C1575.83,205.952 1600.06,191.903 1608.99,186.748C1625.2,177.387 1645.18,177.387 1661.39,186.748C1846.23,293.465 2301.47,556.293 2415.45,622.101C2431.66,631.461 2441.65,648.761 2441.65,667.482L2441.65,1373.23C2441.65,1391.95 2431.66,1409.25 2415.45,1418.61C2406.52,1423.76 2392.17,1432.04 2392.17,1432.04L2366.19,1447.04C2369.89,1439.8 2392.2,1410.18 2392.2,1401.77L2392.2,696.029C2392.2,677.308 2382.22,660.009 2366,650.648C2252.02,584.84 1791.86,330.119 1611.95,215.295C1608.12,212.85 1596.97,207.988 1586.31,208.369C1576.51,208.719 1576.31,208.542 1562.98,213.311Z" style="fill:url(#_Linear3);"/>
            <path id="screen-background-main" d="M2392.2,696.029C2392.2,677.308 2382.22,660.009 2366,650.648C2252.02,584.84 1796.79,322.012 1611.95,215.295C1595.74,205.934 1575.76,205.934 1559.55,215.295C1543.33,224.656 1533.35,241.955 1533.35,260.676L1533.35,966.42C1533.35,985.141 1543.33,1002.44 1559.55,1011.8C1673.53,1077.61 2128.76,1340.44 2313.6,1447.15C2329.81,1456.52 2349.79,1456.52 2366,1447.15C2382.22,1437.79 2392.2,1420.49 2392.2,1401.77L2392.2,696.029Z" style="fill:white;"/>
        </g>
        <g id="screen-content">
            <path d="M1619.32,276.437C1635.41,285.727 1648.47,308.352 1648.47,326.93C1648.47,345.508 1635.41,353.05 1619.32,343.761C1603.23,334.472 1590.17,311.847 1590.17,293.268C1590.17,274.69 1603.23,267.148 1619.32,276.437Z" style="fill:none;stroke:black;stroke-width:25px;"/>
            <path d="M1715.22,331.804C1731.31,341.093 1744.37,363.718 1744.37,382.296C1744.37,400.875 1731.31,408.416 1715.22,399.127C1699.13,389.838 1686.06,367.213 1686.06,348.634C1686.06,330.056 1699.13,322.514 1715.22,331.804Z" style="fill:none;stroke:black;stroke-width:25px;"/>
            <path d="M1810.72,386.941C1826.81,396.23 1839.87,418.855 1839.87,437.434C1839.87,456.012 1826.81,463.554 1810.72,454.265C1794.63,444.975 1781.56,422.35 1781.56,403.772C1781.56,385.193 1794.63,377.652 1810.72,386.941Z" style="fill:none;stroke:black;stroke-width:25px;"/>
            <path d="M1666.79,600.234L1701.38,517.318" style="fill:none;stroke:black;stroke-width:25px;"/>
            <path d="M1728.44,635.833L1772.78,609.987L1728.44,532.945" style="fill:none;stroke:black;stroke-width:25px;"/>
            <path d="M1637.87,480.65L1593.53,506.496L1637.87,583.538" style="fill:none;stroke:black;stroke-width:25px;"/>
            <path d="M1815.88,631.816L1869.61,662.834" style="fill:none;stroke:black;stroke-width:25px;"/>
            <path d="M1898.43,878.988L1950.36,908.97" style="fill:none;stroke:black;stroke-width:25px;"/>
            <path d="M1835.22,842.495L1867.71,861.249" style="fill:none;stroke:black;stroke-width:25px;"/>
            <path d="M1597.38,705.178L1643.34,731.712" style="fill:none;stroke:black;stroke-width:25px;"/>
            <path d="M1597.11,766.489L1672.39,809.955" style="fill:none;stroke:black;stroke-width:25px;"/>
            <path d="M1597.12,642.301L1692.89,697.594" style="fill:none;stroke:black;stroke-width:25px;"/>
            <path d="M1679.04,751.212L1798.17,819.991" style="fill:none;stroke:black;stroke-width:25px;"/>
            <path d="M1832.59,902.447L1955.31,973.301" style="fill:none;stroke:black;stroke-width:25px;"/>
            <path d="M1702.9,827.571L1798.67,882.864" style="fill:none;stroke:black;stroke-width:25px;"/>
            <path d="M1730.33,719.206L1892.16,812.638" style="fill:none;stroke:black;stroke-width:25px;"/>
            <path d="M1910.5,686.444L2189.29,847.401" style="fill:none;stroke:black;stroke-width:25px;"/>
            <path id="screen-line-top" d="M1533.35,358.195L2392.2,854.057L2392.2,834.812L1533.35,338.95L1533.35,358.195Z"/>
            <path id="screen-line-bottom" d="M1533.35,882.296L2392.2,1378.16L2392.2,1358.91L1533.35,863.051L1533.35,882.296Z"/>
        </g>
    </g>
    <g id="logo-bottom">
        <path id="logo-bottom-depth-side" d="M2641.2,1403.86C2641.2,1403.86 2723.03,1356.62 2723.03,1356.62C2701.62,1496.73 2639.18,1597.5 2549.3,1651.15L2549.66,1650.97L2463.09,1700.99L2463.39,1700.78C2477.16,1692.85 2490.29,1683.84 2502.75,1673.77C2550.12,1635.47 2587.72,1581.88 2612.99,1514.48L2613.46,1513.2L2613.79,1512.32C2613.98,1511.8 2614.17,1511.27 2614.37,1510.75L2614.94,1509.17L2615.51,1507.59C2615.7,1507.06 2615.88,1506.54 2616.07,1506.01L2616.63,1504.42L2617.18,1502.82L2617.74,1501.22L2618.28,1499.61L2618.82,1498L2619.36,1496.39L2619.89,1494.77L2620.42,1493.14L2620.94,1491.51L2621.46,1489.88L2621.98,1488.24L2622.49,1486.59L2622.99,1484.94L2623.49,1483.29L2624.06,1481.39L2624.48,1479.96L2624.97,1478.3L2625.49,1476.47L2625.93,1474.94L2626.4,1473.26L2626.91,1471.41L2627.33,1469.88L2627.79,1468.18L2628.29,1466.31L2628.7,1464.77L2629.14,1463.06L2629.63,1461.16L2630.1,1459.3L2630.65,1457.08L2630.97,1455.77L2631.35,1454.2L2631.92,1451.81L2632.23,1450.49L2632.55,1449.13L2633.15,1446.5L2633.45,1445.17L2633.74,1443.86L2634.2,1441.8L2634.63,1439.8L2634.9,1438.52L2635.33,1436.47L2635.76,1434.39L2636.01,1433.13L2636.42,1431.1L2636.85,1428.94L2637.09,1427.7L2637.47,1425.69L2637.89,1423.44L2638.11,1422.23L2638.47,1420.26L2638.89,1417.9L2639.1,1416.71L2639.43,1414.8L2639.85,1412.32L2640.04,1411.15L2640.34,1409.33L2640.76,1406.69L2640.93,1405.55C2641.02,1405 2641.11,1404.43 2641.2,1403.86Z" style="fill:url(#_Linear4);"/>
        <path id="logo-bottom-depth-top" d="M2636.98,1404.8C2618.04,1409 2540.65,1426.19 2514.6,1432.68C2464.34,1445.2 2410.23,1450.8 2350.77,1437.11C2289.77,1423.06 2224.22,1385.3 2163.33,1329.8C2104.94,1276.57 2043.36,1204.15 2008.34,1123.25C1968.47,1031.15 1969.94,941.176 2003.9,890.654C2021.27,864.818 2048.63,851.579 2080.6,851.779C2051.73,903.49 2052.42,988.791 2090.17,1076C2125.19,1156.9 2186.77,1229.33 2245.17,1282.56C2306.05,1338.05 2371.61,1375.81 2432.61,1389.86C2492.06,1403.55 2546.18,1397.96 2596.43,1385.43C2626.21,1378.02 2723.03,1356.62 2723.03,1356.62C2723.03,1356.62 2641.2,1403.86 2641.2,1403.86L2636.98,1404.8ZM1485.74,716.579C1449.21,701.882 1384.87,633.498 1384.87,633.498L1466.7,585.745C1466.7,585.745 1530.05,648.841 1562.97,666.894C1596.16,685.097 1628.11,688.783 1656.51,683.815C1695.48,676.997 1729.4,658.771 1765.81,646.822C1799.07,635.909 1834.49,629.726 1872.98,630.955C1915.97,632.328 1960.19,637.479 2008.03,659.219C2020.76,665 2033.62,671.785 2046.33,679.133C2098.94,709.648 2151.3,749.701 2203.29,789.605C2205.37,791.199 2207.45,792.794 2209.52,794.391C2213.62,797.543 2217.64,802.542 2218.22,807.625C2218.57,810.762 2217.62,813.261 2215.82,814.205C2214,815.157 2134,860.988 2134,860.988C2134,860.988 2138.98,853.477 2128.65,844.074C2109.2,826.369 2123.5,838.135 2104.03,823.491C2057.77,788.119 2011.23,753.486 1964.49,726.38C1951.79,719.031 1938.92,712.247 1926.2,706.466C1878.35,684.726 1834.14,679.574 1791.14,678.202C1752.65,676.973 1717.24,683.156 1683.98,694.069C1647.57,706.018 1613.64,724.244 1574.67,731.061C1547.59,735.799 1517.29,732.667 1485.74,716.579Z" style="fill:url(#_Linear5);"/>
        <path id="logo-bottom-main" d="M1384.87,632.992C1415.03,665.636 1448.22,696.088 1481.13,714.14C1514.33,732.343 1546.27,736.03 1574.67,731.061C1613.64,724.244 1647.57,706.018 1683.98,694.069C1717.24,683.156 1752.65,676.973 1791.14,678.202C1834.14,679.574 1878.35,684.726 1926.2,706.466C1938.92,712.247 1951.79,719.031 1964.49,726.38C2017.1,756.895 2069.47,796.948 2121.46,836.852C2123.54,838.446 2125.61,840.041 2127.69,841.638C2131.78,844.79 2135.8,849.789 2136.38,854.872C2136.74,858.009 2135.79,860.508 2133.99,861.452C2132.17,862.404 2131.53,862.145 2128.74,861.025C2113.6,855.012 2098.97,852.507 2085.02,851.89C2051.16,850.396 2022.06,863.637 2003.9,890.654C1969.94,941.176 1968.47,1031.15 2008.34,1123.25C2043.36,1204.15 2104.94,1276.57 2163.33,1329.8C2224.22,1385.3 2289.77,1423.06 2350.77,1437.11C2410.23,1450.8 2464.34,1445.2 2514.6,1432.68C2544.37,1425.26 2603.63,1412.07 2641.2,1403.86C2592.38,1723.3 2330.35,1838.27 2015.6,1656.55C1687.2,1466.95 1416.23,1020.86 1384.87,632.992Z" style="fill:url(#_Linear6);"/>
    </g>
    <g id="code-box">
        <g id="code-box-depth">
            <path id="code-box-depth-bottom" d="M1974.48,1144.42C1974.09,1144.64 1973.18,1145.16 1973.18,1145.16C1973.18,1145.16 2012.25,1122.61 2018.44,1119.04C2024.63,1115.46 2032.25,1115.46 2038.44,1119.04L2352.8,1300.53C2358.99,1304.1 2362.8,1310.71 2362.8,1317.85L2362.8,1372.25C2362.8,1379.4 2358.99,1386 2352.8,1389.57C2346.61,1393.14 2308.49,1415.15 2308.49,1415.15L2308.5,1415.15L2308.55,1415.12C2308.64,1415.07 2308.74,1415.01 2308.84,1414.95C2315.02,1411.38 2318.84,1404.78 2318.84,1397.63C2318.84,1378.68 2318.84,1356.44 2318.84,1343.23C2318.84,1336.09 2315.02,1329.49 2308.84,1325.91L1994.48,1144.42C1988.29,1140.85 1980.66,1140.85 1974.48,1144.42Z" style="fill:url(#_Linear7);"/>
            <path id="code-box-depth-middle" d="M1972.58,982.761C1972.19,982.984 1971.29,983.507 1971.29,983.507C1971.29,983.507 2010.35,960.95 2016.54,957.378C2022.73,953.805 2030.35,953.805 2036.54,957.378L2350.9,1138.87C2357.09,1142.45 2360.9,1149.05 2360.9,1156.19L2360.9,1210.59C2360.9,1217.74 2357.09,1224.34 2350.9,1227.91C2344.71,1231.49 2306.6,1253.49 2306.6,1253.49L2306.6,1253.49L2306.64,1253.46C2306.74,1253.41 2306.84,1253.35 2306.94,1253.3C2313.12,1249.73 2316.94,1243.12 2316.94,1235.98C2316.94,1217.03 2316.94,1194.78 2316.94,1181.58C2316.94,1174.43 2313.12,1167.83 2306.94,1164.26L1992.58,982.761C1986.39,979.188 1978.77,979.188 1972.58,982.761Z" style="fill:url(#_Linear8);"/>
            <path id="code-box-depth-top" d="M1972.58,820.733C1972.19,820.957 1971.29,821.479 1971.29,821.479C1971.29,821.479 2010.35,798.923 2016.54,795.35C2022.73,791.778 2030.35,791.778 2036.54,795.35L2350.9,976.846C2357.09,980.419 2360.9,987.021 2360.9,994.166L2360.9,1048.57C2360.9,1055.71 2357.09,1062.31 2350.9,1065.89C2344.71,1069.46 2306.6,1091.47 2306.6,1091.47L2306.6,1091.46L2306.64,1091.43C2306.74,1091.38 2306.84,1091.33 2306.94,1091.27C2313.12,1087.7 2316.94,1081.1 2316.94,1073.95C2316.94,1055 2316.94,1032.76 2316.94,1019.55C2316.94,1012.4 2313.12,1005.8 2306.94,1002.23L1992.58,820.733C1986.39,817.161 1978.77,817.161 1972.58,820.733Z" style="fill:url(#_Linear9);"/>
        </g>
        <g id="code-box-main">
            <g id="code-box-main-top">
                <path id="code-box1" serif:id="code-box" d="M2316.99,1019.35C2316.99,1012.2 2313.17,1005.6 2306.99,1002.03C2260.87,975.405 2067.8,863.937 1992.77,820.619C1986.59,817.046 1978.96,817.046 1972.77,820.619C1966.59,824.192 1962.77,830.794 1962.77,837.94C1962.77,856.901 1962.77,879.161 1962.77,892.374C1962.77,899.52 1966.59,906.122 1972.77,909.695C2018.89,936.319 2211.96,1047.79 2286.99,1091.1C2293.17,1094.68 2300.8,1094.68 2306.99,1091.1C2313.17,1087.53 2316.99,1080.93 2316.99,1073.78C2316.99,1054.82 2316.99,1032.56 2316.99,1019.35Z" style="fill:rgb(139,234,104);"/>
                <path id="code-block-left" d="M2007.17,879.454L2077.97,920.328" style="fill:none;stroke:black;stroke-width:17.78px;"/>
                <path id="code-block-middle" d="M2113.16,940.646L2141.73,957.141" style="fill:none;stroke:black;stroke-width:17.78px;"/>
                <path id="code-block-right" d="M2175.99,976.923L2272.35,1032.55" style="fill:none;stroke:black;stroke-width:17.78px;"/>
            </g>
            <g id="code-box-main-middle">
                <path id="code-box2" serif:id="code-box" d="M2316.99,1181.51C2316.99,1174.37 2313.17,1167.77 2306.99,1164.19C2260.87,1137.57 2067.8,1026.1 1992.77,982.784C1986.59,979.211 1978.96,979.211 1972.77,982.784C1966.59,986.357 1962.77,992.959 1962.77,1000.1C1962.77,1019.07 1962.77,1041.33 1962.77,1054.54C1962.77,1061.68 1966.59,1068.29 1972.77,1071.86C2018.89,1098.48 2211.96,1209.95 2286.99,1253.27C2293.17,1256.84 2300.8,1256.84 2306.99,1253.27C2313.17,1249.7 2316.99,1243.09 2316.99,1235.95C2316.99,1216.99 2316.99,1194.73 2316.99,1181.51Z" style="fill:rgb(139,234,104);"/>
                <path id="code-block-left1" serif:id="code-block-left" d="M2007.17,1040.8L2077.97,1081.67" style="fill:none;stroke:black;stroke-width:17.78px;"/>
                <path id="code-block-middle1" serif:id="code-block-middle" d="M2113.16,1101.99L2141.73,1118.48" style="fill:none;stroke:black;stroke-width:17.78px;"/>
                <path id="code-block-right1" serif:id="code-block-right" d="M2175.99,1138.27L2272.35,1193.89" style="fill:none;stroke:black;stroke-width:17.78px;"/>
            </g>
            <g id="code-box-main-bottom">
                <path id="code-box3" serif:id="code-box" d="M2318.84,1343.06C2318.84,1335.92 2315.02,1329.31 2308.84,1325.74C2262.72,1299.12 2069.65,1187.65 1994.62,1144.33C1988.44,1140.76 1980.81,1140.76 1974.62,1144.33C1968.44,1147.9 1964.62,1154.51 1964.62,1161.65C1964.62,1180.61 1964.62,1202.87 1964.62,1216.09C1964.62,1223.23 1968.44,1229.84 1974.62,1233.41C2020.74,1260.03 2213.81,1371.5 2288.84,1414.82C2295.02,1418.39 2302.65,1418.39 2308.84,1414.82C2315.02,1411.25 2318.84,1404.64 2318.84,1397.5C2318.84,1378.54 2318.84,1356.28 2318.84,1343.06Z" style="fill:rgb(139,234,104);"/>
                <path id="code-block-left2" serif:id="code-block-left" d="M2007.17,1201.89L2077.97,1242.76" style="fill:none;stroke:black;stroke-width:17.78px;"/>
                <path id="code-block-middle2" serif:id="code-block-middle" d="M2113.16,1263.08L2141.73,1279.58" style="fill:none;stroke:black;stroke-width:17.78px;"/>
                <path id="code-block-right2" serif:id="code-block-right" d="M2175.99,1299.36L2272.35,1354.99" style="fill:none;stroke:black;stroke-width:17.78px;"/>
            </g>
        </g>
        <g id="code-box-connectors">
            <path d="M2001.62,929.656L2001.62,987.893" style="fill:none;"/>
            <path d="M1993.29,921.733L1993.29,983.081L2009.96,992.704L2009.96,931.355L1993.29,921.733Z"/>
            <path d="M2001.46,1090.04L2001.46,1148.28" style="fill:none;"/>
            <path d="M1993.12,1083.61L1993.12,1143.47L2009.79,1153.09L2009.79,1093.23L1993.12,1083.61Z"/>
            <path d="M2278.47,1089.49L2278.47,1147.73" style="fill:none;"/>
            <path d="M2270.13,1081.57L2270.13,1142.92L2286.8,1152.54L2286.8,1091.19L2270.13,1081.57Z"/>
            <path d="M2278.3,1249.88L2278.3,1308.11" style="fill:none;"/>
            <path d="M2269.97,1243.44L2269.97,1303.3L2286.64,1312.92L2286.64,1253.07L2269.97,1243.44Z"/>
        </g>
    </g>
    <defs>
        <linearGradient id="_Linear1" x1="0" y1="0" x2="1" y2="0" gradientUnits="userSpaceOnUse" gradientTransform="matrix(342.974,-524.918,524.918,342.974,1315.76,935.575)"><stop offset="0" style="stop-color:rgb(79,78,8);stop-opacity:1"/><stop offset="1" style="stop-color:rgb(180,178,101);stop-opacity:1"/></linearGradient>
        <linearGradient id="_Linear2" x1="0" y1="0" x2="1" y2="0.137741" gradientUnits="userSpaceOnUse" gradientTransform="matrix(297.024,-353.431,454.592,605.433,1820.75,1098.51)"><stop offset="0" style="stop-color:rgb(213,209,28);stop-opacity:1"/><stop offset="1" style="stop-color:rgb(226,224,141);stop-opacity:1"/></linearGradient>
        <linearGradient id="_Linear3" x1="0" y1="0" x2="1" y2="0" gradientUnits="userSpaceOnUse" gradientTransform="matrix(853.15,0,0,1245.9,1588.5,802.677)"><stop offset="0" style="stop-color:rgb(212,212,212);stop-opacity:1"/><stop offset="1" style="stop-color:rgb(156,156,156);stop-opacity:1"/></linearGradient>
        <linearGradient id="_Linear4" x1="0" y1="0" x2="1" y2="0" gradientUnits="userSpaceOnUse" gradientTransform="matrix(259.944,0,0,344.371,2463.09,1528.8)"><stop offset="0" style="stop-color:rgb(0,36,95);stop-opacity:1"/><stop offset="1" style="stop-color:rgb(0,56,146);stop-opacity:1"/></linearGradient>
        <linearGradient id="_Linear5" x1="0" y1="0" x2="1" y2="0" gradientUnits="userSpaceOnUse" gradientTransform="matrix(259.944,0,0,344.371,2463.09,1528.8)"><stop offset="0" style="stop-color:rgb(0,36,95);stop-opacity:1"/><stop offset="1" style="stop-color:rgb(0,56,146);stop-opacity:1"/></linearGradient>
        <linearGradient id="_Linear6" x1="0" y1="0" x2="1" y2="0.0329261" gradientUnits="userSpaceOnUse" gradientTransform="matrix(237.335,-165.526,262.017,425.326,1695.21,1157.01)"><stop offset="0" style="stop-color:rgb(56,56,230);stop-opacity:1"/><stop offset="1" style="stop-color:rgb(11,102,250);stop-opacity:1"/></linearGradient>
        <linearGradient id="_Linear7" x1="0" y1="0" x2="1" y2="0" gradientUnits="userSpaceOnUse" gradientTransform="matrix(389.616,-3.89305e-13,3.68295e-30,298.796,1973.18,1265.75)"><stop offset="0" style="stop-color:rgb(175,240,151);stop-opacity:1"/><stop offset="1" style="stop-color:rgb(34,122,1);stop-opacity:1"/></linearGradient>
        <linearGradient id="_Linear8" x1="0" y1="0" x2="1" y2="0" gradientUnits="userSpaceOnUse" gradientTransform="matrix(389.616,-8.65122e-14,0,298.796,1971.28,1104.1)"><stop offset="0" style="stop-color:rgb(175,240,151);stop-opacity:1"/><stop offset="1" style="stop-color:rgb(34,122,1);stop-opacity:1"/></linearGradient>
        <linearGradient id="_Linear9" x1="0" y1="0" x2="1" y2="0" gradientUnits="userSpaceOnUse" gradientTransform="matrix(389.616,-8.65122e-14,7.36589e-30,298.796,1971.28,942.069)"><stop offset="0" style="stop-color:rgb(175,240,151);stop-opacity:1"/><stop offset="1" style="stop-color:rgb(34,122,1);stop-opacity:1"/></linearGradient>
    </defs>
</svg>
